<?xml version="1.0" encoding="utf-8"?>
<!-- Generator: Adobe Illustrator 16.0.0, SVG Export Plug-In . SVG Version: 6.00 Build 0)  -->
<!DOCTYPE svg PUBLIC "-//W3C//DTD SVG 1.1//EN" "http://www.w3.org/Graphics/SVG/1.1/DTD/svg11.dtd">
<svg version="1.1" id="Layer_1" xmlns="http://www.w3.org/2000/svg" xmlns:xlink="http://www.w3.org/1999/xlink" x="0px" y="0px"
	 width="1920px" height="1080px" viewBox="0 0 1920 1080" enable-background="new 0 0 1920 1080" xml:space="preserve">
<g>
	<defs>
		<rect id="SVGID_1_" width="1920" height="1080"/>
	</defs>
	<clipPath id="SVGID_2_">
		<use xlink:href="#SVGID_1_"  overflow="visible"/>
	</clipPath>
	
		<line clip-path="url(#SVGID_2_)" fill="none" stroke="#FFFFFF" stroke-width="6" stroke-linecap="round" stroke-miterlimit="10" x1="861" y1="715" x2="1501" y2="715"/>
	
		<line clip-path="url(#SVGID_2_)" fill="none" stroke="#FFFFFF" stroke-width="6" stroke-linecap="round" stroke-miterlimit="10" x1="749" y1="715" x2="827" y2="715"/>
	
		<line clip-path="url(#SVGID_2_)" fill="none" stroke="#FFFFFF" stroke-width="6" stroke-linecap="round" stroke-miterlimit="10" x1="1656" y1="715" x2="1707.485" y2="715"/>
	
		<path clip-path="url(#SVGID_2_)" fill="none" stroke="#FFFFFF" stroke-width="6" stroke-linecap="round" stroke-miterlimit="10" d="
		M1636,630.745v78.232c0,3.326-2.453,6.022-5.48,6.022H1467.48c-3.027,0-5.48-2.696-5.48-6.022V431.022
		c0-3.326,2.453-6.022,5.48-6.022h163.039c3.027,0,5.48,2.696,5.48,6.022v50.285"/>
	
		<line clip-path="url(#SVGID_2_)" fill="none" stroke="#FFFFFF" stroke-width="6" stroke-linecap="round" stroke-miterlimit="10" x1="1462" y1="455" x2="1636" y2="455"/>
	
		<line clip-path="url(#SVGID_2_)" fill="none" stroke="#FFFFFF" stroke-width="6" stroke-linecap="round" stroke-miterlimit="10" x1="1462" y1="689" x2="1636" y2="689"/>
	
		<path clip-path="url(#SVGID_2_)" fill="none" stroke="#FFFFFF" stroke-width="6" stroke-linecap="round" stroke-miterlimit="10" d="
		M1633,483c35.898,0,65,29.101,65,65s-29.102,65-65,65s-65-29.101-65-65S1597.102,483,1633,483"/>
	
		<path clip-path="url(#SVGID_2_)" fill="none" stroke="#FFFFFF" stroke-width="6" stroke-linecap="round" stroke-miterlimit="10" d="
		M1593.07,600L1562,671.225l33.904-11.924L1622.629,686L1633,613.55C1633,613.55,1602.773,609.152,1593.07,600z"/>
	
		<path clip-path="url(#SVGID_2_)" fill="none" stroke="#FFFFFF" stroke-width="6" stroke-linecap="round" stroke-miterlimit="10" d="
		M1672.942,600L1708,670.393l-39.693-10.397L1647.969,689L1633,613.493C1633,613.493,1657.35,613.493,1672.942,600z"/>
	
		<polygon clip-path="url(#SVGID_2_)" fill="none" stroke="#FBF222" stroke-width="6" stroke-linecap="round" stroke-linejoin="round" stroke-miterlimit="10" points="
		1633.5,506 1647.25,533.651 1678,538.085 1655.751,559.609 1661.002,590 1633.5,575.651 1605.998,590 1611.249,559.609 
		1589,538.085 1619.75,533.651 	"/>
	
		<line clip-path="url(#SVGID_2_)" fill="none" stroke="#FBF222" stroke-width="6" stroke-linecap="round" stroke-miterlimit="10" x1="1702" y1="478" x2="1739" y2="449"/>
	
		<line clip-path="url(#SVGID_2_)" fill="none" stroke="#FBF222" stroke-width="6" stroke-linecap="round" stroke-miterlimit="10" x1="1715" y1="516" x2="1752" y2="487"/>
	
		<line clip-path="url(#SVGID_2_)" fill="none" stroke="#FBF222" stroke-width="6" stroke-linecap="round" stroke-miterlimit="10" x1="1722" y1="562" x2="1759" y2="533"/>
</g>
</svg>
